<svg xmlns="http://www.w3.org/2000/svg" xmlns:xlink="http://www.w3.org/1999/xlink" data-name="Layer 1" width="734" height="764.5"><rect id="backgroundrect" width="100%" height="100%" x="0" y="0" fill="none" stroke="none"/><defs><linearGradient id="de77dbfb-dd49-4fbc-923c-7946454dd32b" x1="0" y1="0.5000109667218837" x2="1" y2="0.5000109667218837"><stop offset="0" stop-color="gray" stop-opacity="0.25"/><stop offset="0.54" stop-color="gray" stop-opacity="0.12"/><stop offset="1" stop-color="gray" stop-opacity="0.1"/></linearGradient><linearGradient id="6bfe4e4d-6140-4dd1-aeb6-1c24ce52378d" x1="124.2300033569336" y1="536.3200073242188" x2="366.3699951171875" y2="536.3200073242188" xlink:href="#de77dbfb-dd49-4fbc-923c-7946454dd32b"/><linearGradient id="eefef033-b9dd-454d-be9c-2768628c2c1b" x1="366.3699951171875" y1="285.30999755859375" x2="734" y2="285.30999755859375" xlink:href="#de77dbfb-dd49-4fbc-923c-7946454dd32b"/><linearGradient id="56c8a114-3a82-4d1f-807f-287066e4913e" x1="0" y1="285.30999755859375" x2="366.3699951171875" y2="285.30999755859375" xlink:href="#de77dbfb-dd49-4fbc-923c-7946454dd32b"/><linearGradient id="d46a1a66-2ac6-4fbc-9777-fd8606b62c04" x1="276.6400146484375" y1="421.19000244140625" x2="276.6400146484375" y2="255.3800048828125" xlink:href="#de77dbfb-dd49-4fbc-923c-7946454dd32b"/><linearGradient id="81b747dc-c51a-4f4d-a150-34ccfb0c2b19" x1="188.97000122070312" y1="337.55999755859375" x2="364.54998779296875" y2="337.55999755859375" xlink:href="#de77dbfb-dd49-4fbc-923c-7946454dd32b"/><linearGradient id="94dacd35-ade1-481d-ab7d-e71442837947" x1="202.5" y1="296.6300048828125" x2="232.11000061035156" y2="296.6300048828125" xlink:href="#de77dbfb-dd49-4fbc-923c-7946454dd32b"/><linearGradient id="5f9514a3-5a07-41ce-8d35-51c596d713f8" x1="240.99000549316406" y1="284.7900085449219" x2="358.70001220703125" y2="284.7900085449219" xlink:href="#de77dbfb-dd49-4fbc-923c-7946454dd32b"/><linearGradient id="5f23502f-63c8-483a-bbd9-acad51c7384b" x1="240.99000549316406" y1="293.6700134277344" x2="358.70001220703125" y2="293.6700134277344" xlink:href="#de77dbfb-dd49-4fbc-923c-7946454dd32b"/><linearGradient id="1d6905ae-9130-4997-8264-fbb8cedb035a" x1="199.5399932861328" y1="325.9200134277344" x2="358.70001220703125" y2="325.9200134277344" xlink:href="#de77dbfb-dd49-4fbc-923c-7946454dd32b"/><linearGradient id="41900377-e2ec-4e09-a282-5ca05bd60f31" x1="199.5399932861328" y1="334.79998779296875" x2="358.70001220703125" y2="334.79998779296875" xlink:href="#de77dbfb-dd49-4fbc-923c-7946454dd32b"/><linearGradient id="dd8a4518-18b3-4e66-a30f-5d540a356d99" x1="199.5399932861328" y1="346.6400146484375" x2="358.70001220703125" y2="346.6400146484375" xlink:href="#de77dbfb-dd49-4fbc-923c-7946454dd32b"/><linearGradient id="73297694-c0f6-49f7-84f0-ecf1ccd19cc8" x1="199.5399932861328" y1="355.5299987792969" x2="291.3299865722656" y2="355.5299987792969" xlink:href="#de77dbfb-dd49-4fbc-923c-7946454dd32b"/><linearGradient id="493ae8f5-00a4-414a-a514-466a18e555de" x1="199.5399932861328" y1="367.3399963378906" x2="358.70001220703125" y2="367.3399963378906" xlink:href="#de77dbfb-dd49-4fbc-923c-7946454dd32b"/><linearGradient id="3b1e923e-cefa-4350-8e60-09975381dcc2" x1="199.5399932861328" y1="376.2200012207031" x2="358.70001220703125" y2="376.2200012207031" xlink:href="#de77dbfb-dd49-4fbc-923c-7946454dd32b"/><linearGradient id="0a8186d7-b2d8-4c25-b395-9cdd58a3b32d" x1="199.5399932861328" y1="388.07000732421875" x2="358.70001220703125" y2="388.07000732421875" xlink:href="#de77dbfb-dd49-4fbc-923c-7946454dd32b"/><linearGradient id="80621535-6eff-45be-9aff-a177b1fc6ef5" x1="199.5399932861328" y1="396.95001220703125" x2="291.3299865722656" y2="396.95001220703125" xlink:href="#de77dbfb-dd49-4fbc-923c-7946454dd32b"/><linearGradient id="dadd1f9f-4435-4897-9b35-9a7b7fdf052b" x1="303.760009765625" y1="459.510009765625" x2="303.760009765625" y2="293.69000244140625" xlink:href="#de77dbfb-dd49-4fbc-923c-7946454dd32b"/><linearGradient id="f16d3271-277e-4f15-bb07-00d21db963c6" x1="216.08999633789062" y1="375.8800048828125" x2="391.6700134277344" y2="375.8800048828125" xlink:href="#de77dbfb-dd49-4fbc-923c-7946454dd32b"/><linearGradient id="6844f77f-b831-40d5-baa2-4d635352d65d" x1="229.6199951171875" y1="334.95001220703125" x2="259.2300109863281" y2="334.95001220703125" xlink:href="#de77dbfb-dd49-4fbc-923c-7946454dd32b"/><linearGradient id="de24e734-f614-4284-b96a-2aa86e10747c" x1="268.1199951171875" y1="323.1099853515625" x2="385.8299865722656" y2="323.1099853515625" xlink:href="#de77dbfb-dd49-4fbc-923c-7946454dd32b"/><linearGradient id="a5efd049-cacb-4880-98c4-916efb717ead" x1="268.1199951171875" y1="331.989990234375" x2="385.8299865722656" y2="331.989990234375" xlink:href="#de77dbfb-dd49-4fbc-923c-7946454dd32b"/><linearGradient id="7e130a40-8f7a-4850-a2d6-6e0275737139" x1="226.66000366210938" y1="364.2300109863281" x2="385.8299865722656" y2="364.2300109863281" xlink:href="#de77dbfb-dd49-4fbc-923c-7946454dd32b"/><linearGradient id="2749f835-9066-4c26-94de-8091e8f0d23b" x1="226.66000366210938" y1="373.1199951171875" x2="385.8299865722656" y2="373.1199951171875" xlink:href="#de77dbfb-dd49-4fbc-923c-7946454dd32b"/><linearGradient id="83d2a205-1aab-4c1f-9a0d-e371e1497593" x1="226.66000366210938" y1="384.9599914550781" x2="385.8299865722656" y2="384.9599914550781" xlink:href="#de77dbfb-dd49-4fbc-923c-7946454dd32b"/><linearGradient id="eaa6c3f5-6275-43ae-b3c2-02cbd6aead80" x1="226.66000366210938" y1="393.8399963378906" x2="318.45001220703125" y2="393.8399963378906" xlink:href="#de77dbfb-dd49-4fbc-923c-7946454dd32b"/><linearGradient id="e1588a1d-b1ef-45da-83e8-d054f8a4e057" x1="226.66000366210938" y1="405.6600036621094" x2="385.8299865722656" y2="405.6600036621094" xlink:href="#de77dbfb-dd49-4fbc-923c-7946454dd32b"/><linearGradient id="34a60174-261b-4ce6-8479-6deff5e9df2e" x1="226.66000366210938" y1="414.5400085449219" x2="385.8299865722656" y2="414.5400085449219" xlink:href="#de77dbfb-dd49-4fbc-923c-7946454dd32b"/><linearGradient id="b1d4060a-bab6-41d9-9d3f-50faf13ce905" x1="226.66000366210938" y1="426.3900146484375" x2="385.8299865722656" y2="426.3900146484375" xlink:href="#de77dbfb-dd49-4fbc-923c-7946454dd32b"/><linearGradient id="001da48e-f69d-4ab6-b1e5-b6877c600ca3" x1="226.66000366210938" y1="435.2699890136719" x2="318.45001220703125" y2="435.2699890136719" xlink:href="#de77dbfb-dd49-4fbc-923c-7946454dd32b"/><linearGradient id="a9c4be37-9b27-4af0-b082-7a197d7b08af" x1="396.2699890136719" y1="498.1099853515625" x2="396.2699890136719" y2="315.1499938964844" xlink:href="#de77dbfb-dd49-4fbc-923c-7946454dd32b"/><linearGradient id="1be8f728-2df0-4ca7-b72e-42c383ba6409" x1="323.20001220703125" y1="406.0799865722656" x2="470.82000732421875" y2="406.0799865722656" xlink:href="#de77dbfb-dd49-4fbc-923c-7946454dd32b"/><linearGradient id="2c239d92-4298-42ac-b5f5-112261fb3719" x1="630.010009765625" y1="435.5400085449219" x2="630.010009765625" y2="409.4100036621094" xlink:href="#de77dbfb-dd49-4fbc-923c-7946454dd32b"/><linearGradient id="b25a2850-8713-435e-a7f6-77c24068e559" x1="379.3399963378906" y1="356.75" x2="414.67999267578125" y2="356.75" xlink:href="#de77dbfb-dd49-4fbc-923c-7946454dd32b"/><linearGradient id="098fbc02-4549-4943-b845-c35e13d002ec" x1="389.6499938964844" y1="345.3399963378906" x2="404.3699951171875" y2="345.3399963378906" xlink:href="#de77dbfb-dd49-4fbc-923c-7946454dd32b"/><linearGradient id="42d5ad37-1f95-4efe-a9d6-9d5a7598317f" x1="345.2900085449219" y1="397.510009765625" x2="449.1000061035156" y2="397.510009765625" xlink:href="#de77dbfb-dd49-4fbc-923c-7946454dd32b"/><linearGradient id="60652df1-b02f-405a-bafe-63f1323ca3b9" x1="345.2900085449219" y1="426.5899963378906" x2="449.1000061035156" y2="426.5899963378906" xlink:href="#de77dbfb-dd49-4fbc-923c-7946454dd32b"/><linearGradient id="d60c104b-effa-4916-ba15-d56398cc91aa" x1="345.2900085449219" y1="434.32000732421875" x2="449.1000061035156" y2="434.32000732421875" xlink:href="#de77dbfb-dd49-4fbc-923c-7946454dd32b"/><linearGradient id="ba8a67f6-dfe8-450d-b63e-7f0d0a91ef94" x1="345.2900085449219" y1="418.8599853515625" x2="389.1000061035156" y2="418.8599853515625" xlink:href="#de77dbfb-dd49-4fbc-923c-7946454dd32b"/><linearGradient id="78ba6fe6-ecca-4e26-a377-427f9aaa9d9c" x1="416.3399963378906" y1="418.8599853515625" x2="449.1000061035156" y2="418.8599853515625" xlink:href="#de77dbfb-dd49-4fbc-923c-7946454dd32b"/><linearGradient id="1435728f-56d7-4408-a8a2-001738c99643" x1="381.7300109863281" y1="452.3599853515625" x2="414.5" y2="452.3599853515625" xlink:href="#de77dbfb-dd49-4fbc-923c-7946454dd32b"/><linearGradient id="9b7fa617-5070-4448-ba88-12c8e3ef9a97" x1="124.2300033569336" y1="565.469970703125" x2="366.3699951171875" y2="565.469970703125" xlink:href="#de77dbfb-dd49-4fbc-923c-7946454dd32b"/><linearGradient id="070ec920-a668-4755-a0ad-3a8615a89315" x1="366.3699951171875" y1="565.469970703125" x2="608.5" y2="565.469970703125" xlink:href="#de77dbfb-dd49-4fbc-923c-7946454dd32b"/><linearGradient id="e36d19af-3b30-4690-9806-5999beea7781" x1="512.1500244140625" y1="631.3900146484375" x2="608.5" y2="631.3900146484375" xlink:href="#de77dbfb-dd49-4fbc-923c-7946454dd32b"/><linearGradient id="a6dd6711-50c1-4fdb-98f5-9ce3faa6868a" x1="517.489990234375" y1="407.0299987792969" x2="517.489990234375" y2="338.4200134277344" xlink:href="#de77dbfb-dd49-4fbc-923c-7946454dd32b"/><linearGradient id="c3285259-7532-4ca4-be71-649fbde17c17" x1="482.8999938964844" y1="372.8699951171875" x2="552.0700073242188" y2="372.8699951171875" xlink:href="#de77dbfb-dd49-4fbc-923c-7946454dd32b"/><linearGradient id="a29959c1-757f-4596-a472-135c84a27060" x1="750.489990234375" y1="435.8599853515625" x2="750.489990234375" y2="415.9700012207031" xlink:href="#de77dbfb-dd49-4fbc-923c-7946454dd32b"/><linearGradient id="d4e4a16f-6e37-4db9-afc4-c764cb698323" x1="504.0400085449219" y1="359.7099914550781" x2="530.9299926757812" y2="359.7099914550781" xlink:href="#de77dbfb-dd49-4fbc-923c-7946454dd32b"/><linearGradient id="cff56feb-0464-47d9-bfaf-95cdd3d9140f" x1="511.8900146484375" y1="351.0299987792969" x2="523.0900268554688" y2="351.0299987792969" xlink:href="#de77dbfb-dd49-4fbc-923c-7946454dd32b"/><linearGradient id="03628828-f4ed-4a34-b456-49742169550b" x1="505.5799865722656" y1="380.7099914550781" x2="530.510009765625" y2="380.7099914550781" xlink:href="#de77dbfb-dd49-4fbc-923c-7946454dd32b"/><linearGradient id="563972f9-7c15-4736-8e1d-5831e19f738d" x1="496.20001220703125" y1="386.8699951171875" x2="538.77001953125" y2="386.8699951171875" xlink:href="#de77dbfb-dd49-4fbc-923c-7946454dd32b"/><linearGradient id="ac84c3f4-4913-47be-bf79-f44b0f4db4c8" x1="358.760009765625" y1="204.69000244140625" x2="358.760009765625" y2="128.69000244140625" xlink:href="#de77dbfb-dd49-4fbc-923c-7946454dd32b"/><linearGradient id="08e6e94c-7f78-4a4a-b5ca-eacc99124954" x1="313.57000732421875" y1="166.77999877929688" x2="403.760009765625" y2="166.77999877929688" xlink:href="#de77dbfb-dd49-4fbc-923c-7946454dd32b"/><linearGradient id="5d8bf870-f7e1-4226-8bb2-e6c031939852" x1="313.57000732421875" y1="138.3000030517578" x2="403.760009765625" y2="138.3000030517578" xlink:href="#de77dbfb-dd49-4fbc-923c-7946454dd32b"/><linearGradient id="ca57a38f-5e0b-4f9a-ad35-d20a6a3fb589" x1="320.760009765625" y1="157.1699981689453" x2="396.57000732421875" y2="157.1699981689453" xlink:href="#de77dbfb-dd49-4fbc-923c-7946454dd32b"/><linearGradient id="1fd9aa29-bfa0-42ec-baa0-a47f4919731f" x1="320.760009765625" y1="170.72999572753906" x2="376.0899963378906" y2="170.72999572753906" xlink:href="#de77dbfb-dd49-4fbc-923c-7946454dd32b"/><linearGradient id="2b0d4ee5-bed4-41f8-93bf-55bbaa1359c2" x1="320.760009765625" y1="176.3000030517578" x2="356.69000244140625" y2="176.3000030517578" xlink:href="#de77dbfb-dd49-4fbc-923c-7946454dd32b"/><linearGradient id="ffea16a4-8b84-4b92-9000-f48bb1ea4454" x1="320.760009765625" y1="181.8699951171875" x2="368.19000244140625" y2="181.8699951171875" xlink:href="#de77dbfb-dd49-4fbc-923c-7946454dd32b"/><linearGradient id="bd2a8e8b-f3e8-4ae2-849a-acfa94ff2f68" x1="320.760009765625" y1="187.44000244140625" x2="376.0899963378906" y2="187.44000244140625" xlink:href="#de77dbfb-dd49-4fbc-923c-7946454dd32b"/><linearGradient id="f06efa35-a8e5-4b8b-afbe-7609fb33c535" x1="320.760009765625" y1="193.00999450683594" x2="339.260009765625" y2="193.00999450683594" xlink:href="#de77dbfb-dd49-4fbc-923c-7946454dd32b"/><linearGradient id="b384c48b-fa09-4d02-bdd3-cc00491ed01d" x1="505.8599853515625" y1="279.95001220703125" x2="505.8599853515625" y2="185.75999450683594" xlink:href="#de77dbfb-dd49-4fbc-923c-7946454dd32b"/><linearGradient id="5e00f217-30a6-42ff-b3ae-1a90f6b4187c" x1="449.8599853515625" y1="232.9600067138672" x2="561.6400146484375" y2="232.9600067138672" xlink:href="#de77dbfb-dd49-4fbc-923c-7946454dd32b"/><linearGradient id="dc2aebd1-2b83-4119-bcc5-a741f826754f" x1="449.8599853515625" y1="197.6699981689453" x2="561.6400146484375" y2="197.6699981689453" xlink:href="#de77dbfb-dd49-4fbc-923c-7946454dd32b"/><linearGradient id="93231171-c5fd-4b16-9e58-5bf8089a9216" x1="458.760009765625" y1="221.0500030517578" x2="552.72998046875" y2="221.0500030517578" xlink:href="#de77dbfb-dd49-4fbc-923c-7946454dd32b"/><linearGradient id="50b8a9d8-eeba-4f66-80ff-241f1361769d" x1="458.760009765625" y1="237.86000061035156" x2="527.3499755859375" y2="237.86000061035156" xlink:href="#de77dbfb-dd49-4fbc-923c-7946454dd32b"/><linearGradient id="1c46a2fd-722a-4782-991f-2753aa584a85" x1="458.760009765625" y1="244.77000427246094" x2="503.29998779296875" y2="244.77000427246094" xlink:href="#de77dbfb-dd49-4fbc-923c-7946454dd32b"/><linearGradient id="20746c70-8f38-4111-a8e7-6be16dcdc432" x1="458.760009765625" y1="251.6699981689453" x2="517.5499877929688" y2="251.6699981689453" xlink:href="#de77dbfb-dd49-4fbc-923c-7946454dd32b"/><linearGradient id="ff2c3201-2e6a-4c49-9262-7d1610fa9938" x1="458.760009765625" y1="258.57000732421875" x2="527.3499755859375" y2="258.57000732421875" xlink:href="#de77dbfb-dd49-4fbc-923c-7946454dd32b"/><linearGradient id="f77a8c52-f808-4319-bd14-9cea9a000094" x1="458.760009765625" y1="265.4800109863281" x2="481.70001220703125" y2="265.4800109863281" xlink:href="#de77dbfb-dd49-4fbc-923c-7946454dd32b"/><linearGradient id="fc3b52e5-7958-4225-afa3-e6f186f3a800" x1="463.6600036621094" y1="220.94000244140625" x2="490.3800048828125" y2="220.94000244140625" xlink:href="#de77dbfb-dd49-4fbc-923c-7946454dd32b"/><linearGradient id="2b5a7ca0-2cf9-4df0-8cdd-e53d9708a5ec" x1="121.06999969482422" y1="472.92999267578125" x2="365.7300109863281" y2="472.92999267578125" xlink:href="#de77dbfb-dd49-4fbc-923c-7946454dd32b"/><linearGradient id="90935925-bac4-44a4-bec6-4c83fa48424d" x1="365.7300109863281" y1="472.92999267578125" x2="610.4000244140625" y2="472.92999267578125" xlink:href="#de77dbfb-dd49-4fbc-923c-7946454dd32b"/><linearGradient id="f90ef38d-8fba-46a7-8e54-2d901dfd8f20" x1="0" y1="448.2099914550781" x2="366.3699951171875" y2="448.2099914550781" xlink:href="#de77dbfb-dd49-4fbc-923c-7946454dd32b"/><linearGradient id="7f322de3-7e3f-4ca5-a3a0-2f913675712e" x1="366.3699951171875" y1="448.2099914550781" x2="734" y2="448.2099914550781" xlink:href="#de77dbfb-dd49-4fbc-923c-7946454dd32b"/><linearGradient id="7e9b6443-5111-46ce-82ab-312f92c279a9" x1="279.9200134277344" y1="417.6400146484375" x2="279.9200134277344" y2="253.24000549316406" xlink:href="#de77dbfb-dd49-4fbc-923c-7946454dd32b"/><linearGradient id="0bd401ed-ef45-4e9e-bf5f-b77781a1e2b2" x1="306.82000732421875" y1="455.6300048828125" x2="306.82000732421875" y2="291.2300109863281" xlink:href="#de77dbfb-dd49-4fbc-923c-7946454dd32b"/><linearGradient id="8c2d82fb-4f28-4e85-a5ca-7392731b2ba5" x1="398.5400085449219" y1="493.8999938964844" x2="398.5400085449219" y2="312.510009765625" xlink:href="#de77dbfb-dd49-4fbc-923c-7946454dd32b"/><linearGradient id="5d661687-e38a-43c0-8ba0-d38908ccc19f" x1="632.27001953125" y1="432.45001220703125" x2="632.27001953125" y2="406.5299987792969" xlink:href="#de77dbfb-dd49-4fbc-923c-7946454dd32b"/><linearGradient id="e62c516b-7ef4-49fd-a0a5-f3f48af03dcb" x1="518.7100219726562" y1="403.6000061035156" x2="518.7100219726562" y2="335.5799865722656" xlink:href="#de77dbfb-dd49-4fbc-923c-7946454dd32b"/><linearGradient id="6e0711fe-dd5e-4be2-836c-3534ecd56ee9" x1="751.7100219726562" y1="432.760009765625" x2="751.7100219726562" y2="413.04998779296875" xlink:href="#de77dbfb-dd49-4fbc-923c-7946454dd32b"/><linearGradient id="c910eb88-40c3-4f47-be10-2fca2f669ad6" x1="450.8399963378906" y1="68.0199966430664" x2="450.8399963378906" y2="0" xlink:href="#de77dbfb-dd49-4fbc-923c-7946454dd32b"/><linearGradient id="81ab2f40-7513-4f79-907c-194f7c944fd5" x1="683.8400268554688" y1="97.18000030517578" x2="683.8400268554688" y2="77.47000122070312" xlink:href="#de77dbfb-dd49-4fbc-923c-7946454dd32b"/><linearGradient id="ced5db71-211d-4559-8944-028d2e60ece5" x1="361.3399963378906" y1="202.99000549316406" x2="361.3399963378906" y2="127.63999938964844" xlink:href="#de77dbfb-dd49-4fbc-923c-7946454dd32b"/><linearGradient id="4adf524d-df88-48e8-970a-1ad7028c73c0" x1="507.17999267578125" y1="277.6099853515625" x2="507.17999267578125" y2="184.22000122070312" xlink:href="#de77dbfb-dd49-4fbc-923c-7946454dd32b"/></defs><title>collecting</title><g class="currentLayer" style=""><title>Layer 1</title><g opacity="0.7" id="svg_1"><polygon points="608.5 366.44 366.37 308.13 366.37 764.5 608.5 701.12 608.5 366.44" fill="url(#de77dbfb-dd49-4fbc-923c-7946454dd32b)" id="svg_2"/><g opacity="0.1" id="svg_3"><polygon points="608.5 366.44 366.37 308.13 366.37 764.5 608.5 701.12 608.5 366.44" fill="url(#de77dbfb-dd49-4fbc-923c-7946454dd32b)" id="svg_4"/></g><polygon points="124.23 366.44 366.37 308.13 366.37 764.5 124.23 702.38 124.23 366.44" fill="url(#6bfe4e4d-6140-4dd1-aeb6-1c24ce52378d)" id="svg_5"/><g opacity="0.17" id="svg_6"><polygon points="124.23 366.44 366.37 308.13 366.37 764.5 124.23 702.38 124.23 366.44" fill="url(#6bfe4e4d-6140-4dd1-aeb6-1c24ce52378d)" id="svg_7"/></g><polygon points="366.37 308.13 491.87 204.18 734 266.3 608.5 366.44 366.37 308.13" fill="url(#eefef033-b9dd-454d-be9c-2768628c2c1b)" id="svg_8"/><polygon points="0 267.56 124.23 366.44 366.37 308.13 243.4 204.18 0 267.56" fill="url(#56c8a114-3a82-4d1f-807f-287066e4913e)" id="svg_9"/><g opacity="0.05" id="svg_10"><polygon points="0 267.56 124.23 366.44 366.37 308.13 243.4 204.18 0 267.56" fill="url(#56c8a114-3a82-4d1f-807f-287066e4913e)" id="svg_11"/></g><g opacity="0.5" id="svg_12"><rect x="186.77999877929688" y="255.3800048828125" width="179.72000122070312" height="165.82000732421875" rx="4.5" ry="4.5" fill="url(#d46a1a66-2ac6-4fbc-9777-fd8606b62c04)" id="svg_13"/></g><rect x="188.97000122070312" y="256.6600036621094" width="175.5800018310547" height="161.8000030517578" rx="4.5" ry="4.5" fill="url(#81b747dc-c51a-4f4d-a150-34ccfb0c2b19)" id="svg_14"/><rect x="202.5" y="283.30999755859375" width="29.610000610351562" height="26.649999618530273" rx="4.5" ry="4.5" fill="url(#94dacd35-ade1-481d-ab7d-e71442837947)" id="svg_15"/><rect x="240.99000549316406" y="283.30999755859375" width="117.70999908447266" height="2.9600000381469727" rx="0.800000011920929" ry="0.800000011920929" fill="url(#5f9514a3-5a07-41ce-8d35-51c596d713f8)" id="svg_16"/><rect x="240.99000549316406" y="292.19000244140625" width="117.70999908447266" height="2.9600000381469727" rx="0.800000011920929" ry="0.800000011920929" fill="url(#5f23502f-63c8-483a-bbd9-acad51c7384b)" id="svg_17"/><rect x="199.5399932861328" y="324.44000244140625" width="159.16000366210938" height="2.9600000381469727" rx="0.800000011920929" ry="0.800000011920929" fill="url(#1d6905ae-9130-4997-8264-fbb8cedb035a)" id="svg_18"/><rect x="199.5399932861328" y="333.32000732421875" width="159.16000366210938" height="2.9600000381469727" rx="0.800000011920929" ry="0.800000011920929" fill="url(#41900377-e2ec-4e09-a282-5ca05bd60f31)" id="svg_19"/><rect x="199.5399932861328" y="345.1600036621094" width="159.16000366210938" height="2.9600000381469727" rx="0.800000011920929" ry="0.800000011920929" fill="url(#dd8a4518-18b3-4e66-a30f-5d540a356d99)" id="svg_20"/><rect x="199.5399932861328" y="354.04998779296875" width="91.79000091552734" height="2.9600000381469727" rx="0.800000011920929" ry="0.800000011920929" fill="url(#73297694-c0f6-49f7-84f0-ecf1ccd19cc8)" id="svg_21"/><rect x="199.5399932861328" y="365.8599853515625" width="159.16000366210938" height="2.9600000381469727" rx="0.800000011920929" ry="0.800000011920929" fill="url(#493ae8f5-00a4-414a-a514-466a18e555de)" id="svg_22"/><rect x="199.5399932861328" y="374.739990234375" width="159.16000366210938" height="2.9600000381469727" rx="0.800000011920929" ry="0.800000011920929" fill="url(#3b1e923e-cefa-4350-8e60-09975381dcc2)" id="svg_23"/><rect x="199.5399932861328" y="386.5899963378906" width="159.16000366210938" height="2.9600000381469727" rx="0.800000011920929" ry="0.800000011920929" fill="url(#0a8186d7-b2d8-4c25-b395-9cdd58a3b32d)" id="svg_24"/><rect x="199.5399932861328" y="395.4700012207031" width="91.79000091552734" height="2.9600000381469727" rx="0.800000011920929" ry="0.800000011920929" fill="url(#80621535-6eff-45be-9aff-a177b1fc6ef5)" id="svg_25"/><g opacity="0.5" id="svg_26"><rect x="213.89999389648438" y="293.69000244140625" width="179.72000122070312" height="165.82000732421875" rx="4.5" ry="4.5" fill="url(#dadd1f9f-4435-4897-9b35-9a7b7fdf052b)" id="svg_27"/></g><rect x="216.08999633789062" y="294.9800109863281" width="175.5800018310547" height="161.8000030517578" rx="4.5" ry="4.5" fill="url(#f16d3271-277e-4f15-bb07-00d21db963c6)" id="svg_28"/><rect x="229.6199951171875" y="321.6300048828125" width="29.610000610351562" height="26.649999618530273" rx="4.5" ry="4.5" fill="url(#6844f77f-b831-40d5-baa2-4d635352d65d)" id="svg_29"/><rect x="268.1199951171875" y="321.6300048828125" width="117.70999908447266" height="2.9600000381469727" rx="0.800000011920929" ry="0.800000011920929" fill="url(#de24e734-f614-4284-b96a-2aa86e10747c)" id="svg_30"/><rect x="268.1199951171875" y="330.510009765625" width="117.70999908447266" height="2.9600000381469727" rx="0.800000011920929" ry="0.800000011920929" fill="url(#a5efd049-cacb-4880-98c4-916efb717ead)" id="svg_31"/><rect x="226.66000366210938" y="362.75" width="159.16000366210938" height="2.9600000381469727" rx="0.800000011920929" ry="0.800000011920929" fill="url(#7e130a40-8f7a-4850-a2d6-6e0275737139)" id="svg_32"/><rect x="226.66000366210938" y="371.6400146484375" width="159.16000366210938" height="2.9600000381469727" rx="0.800000011920929" ry="0.800000011920929" fill="url(#2749f835-9066-4c26-94de-8091e8f0d23b)" id="svg_33"/><rect x="226.66000366210938" y="383.4800109863281" width="159.16000366210938" height="2.9600000381469727" rx="0.800000011920929" ry="0.800000011920929" fill="url(#83d2a205-1aab-4c1f-9a0d-e371e1497593)" id="svg_34"/><rect x="226.66000366210938" y="392.3599853515625" width="91.79000091552734" height="2.9600000381469727" rx="0.800000011920929" ry="0.800000011920929" fill="url(#eaa6c3f5-6275-43ae-b3c2-02cbd6aead80)" id="svg_35"/><rect x="226.66000366210938" y="404.17999267578125" width="159.16000366210938" height="2.9600000381469727" rx="0.800000011920929" ry="0.800000011920929" fill="url(#e1588a1d-b1ef-45da-83e8-d054f8a4e057)" id="svg_36"/><rect x="226.66000366210938" y="413.05999755859375" width="159.16000366210938" height="2.9600000381469727" rx="0.800000011920929" ry="0.800000011920929" fill="url(#34a60174-261b-4ce6-8479-6deff5e9df2e)" id="svg_37"/><rect x="226.66000366210938" y="424.9100036621094" width="159.16000366210938" height="2.9600000381469727" rx="0.800000011920929" ry="0.800000011920929" fill="url(#b1d4060a-bab6-41d9-9d3f-50faf13ce905)" id="svg_38"/><rect x="226.66000366210938" y="433.7900085449219" width="91.79000091552734" height="2.9600000381469727" rx="0.800000011920929" ry="0.800000011920929" fill="url(#001da48e-f69d-4ab6-b1e5-b6877c600ca3)" id="svg_39"/><g opacity="0.5" id="svg_40"><rect x="318.4100036621094" y="315.1499938964844" width="155.72000122070312" height="182.9600067138672" fill="url(#a9c4be37-9b27-4af0-b082-7a197d7b08af)" id="svg_41"/></g><rect x="323.20001220703125" y="318.1000061035156" width="147.6199951171875" height="175.97000122070312" fill="url(#1be8f728-2df0-4ca7-b72e-42c383ba6409)" id="svg_42"/><g opacity="0.5" id="svg_43"><path d="M405.04999999999995,346.08 v-4.42 H389 v4.42 H377.71000000000004 v21.71 h38.6 V346.08 zM391,343.25 H403 v2.81 H391 z" fill="url(#2c239d92-4298-42ac-b5f5-112261fb3719)" id="svg_44"/></g><rect x="379.3399963378906" y="346.80999755859375" width="35.34000015258789" height="19.8799991607666" fill="url(#b25a2850-8713-435e-a7f6-77c24068e559)" id="svg_45"/><polygon points="389.65 342.76 389.65 347.92 391.49 347.92 391.49 344.24 402.53 344.24 402.53 347.92 404.37 347.92 404.37 342.76 389.65 342.76" fill="url(#098fbc02-4549-4943-b845-c35e13d002ec)" id="svg_46"/><rect x="345.2900085449219" y="395.29998779296875" width="103.80999755859375" height="4.420000076293945" fill="url(#42d5ad37-1f95-4efe-a9d6-9d5a7598317f)" id="svg_47"/><rect x="345.2900085449219" y="424.3800048828125" width="103.80999755859375" height="4.420000076293945" fill="url(#60652df1-b02f-405a-bafe-63f1323ca3b9)" id="svg_48"/><rect x="345.2900085449219" y="432.1099853515625" width="103.80999755859375" height="4.420000076293945" fill="url(#d60c104b-effa-4916-ba15-d56398cc91aa)" id="svg_49"/><rect x="345.2900085449219" y="416.6499938964844" width="43.810001373291016" height="4.420000076293945" fill="url(#ba8a67f6-dfe8-450d-b63e-7f0d0a91ef94)" id="svg_50"/><g opacity="0.6" id="svg_51"><rect x="416.3399963378906" y="416.6499938964844" width="32.7599983215332" height="4.420000076293945" fill="url(#78ba6fe6-ecca-4e26-a377-427f9aaa9d9c)" id="svg_52"/></g><rect x="381.7300109863281" y="450.1499938964844" width="32.7599983215332" height="4.420000076293945" fill="url(#1435728f-56d7-4408-a8a2-001738c99643)" id="svg_53"/><polygon points="124.23 366.44 124.23 702.38 366.37 764.5 366.37 431.1 124.23 366.44" fill="url(#9b7fa617-5070-4448-ba88-12c8e3ef9a97)" id="svg_54"/><polygon points="608.5 701.12 366.37 764.5 366.37 431.1 608.5 366.44 608.5 701.12" fill="url(#070ec920-a668-4755-a0ad-3a8615a89315)" id="svg_55"/><g opacity="0.07" id="svg_56"><polygon points="608.5 701.12 366.37 764.5 366.37 431.1 608.5 366.44 608.5 701.12" fill="url(#070ec920-a668-4755-a0ad-3a8615a89315)" id="svg_57"/></g><g opacity="0.07" id="svg_58"><polygon points="512.15 589.56 512.15 699.85 608.5 673.23 608.5 562.94 512.15 589.56" fill="url(#e36d19af-3b30-4690-9806-5999beea7781)" id="svg_59"/></g><rect x="481.7799987792969" y="338.4200134277344" width="71.41000366210938" height="68.61000061035156" fill="url(#a6dd6711-50c1-4fdb-98f5-9ce3faa6868a)" id="svg_60"/><rect x="482.8999938964844" y="340.1000061035156" width="69.16999816894531" height="65.52999877929688" fill="url(#c3285259-7532-4ca4-be71-649fbde17c17)" id="svg_61"/><g opacity="0.5" id="svg_62"><path d="M523.6,351.59 V348.25 H511.37 v3.36 H502.79999999999995 v16.52 h29.37 V351.59 zM512.9,349.45 h9.18 v2.14 H512.9 z" fill="url(#a29959c1-757f-4596-a472-135c84a27060)" id="svg_63"/></g><g opacity="0.6" id="svg_64"><rect x="504.0400085449219" y="352.1499938964844" width="26.8799991607666" height="15.119999885559082" fill="url(#d4e4a16f-6e37-4db9-afc4-c764cb698323)" id="svg_65"/></g><g opacity="0.6" id="svg_66"><polygon points="511.88 349.06 511.88 352.99 513.29 352.99 513.29 350.19 521.69 350.19 521.69 352.99 523.09 352.99 523.09 349.06 511.88 349.06" fill="url(#cff56feb-0464-47d9-bfaf-95cdd3d9140f)" id="svg_67"/></g><g opacity="0.6" id="svg_68"><rect x="505.5799865722656" y="379.0299987792969" width="24.920000076293945" height="3.359999895095825" fill="url(#03628828-f4ed-4a34-b456-49742169550b)" id="svg_69"/></g><rect x="496.20001220703125" y="385.19000244140625" width="42.56999969482422" height="3.359999895095825" fill="url(#563972f9-7c15-4736-8e1d-5831e19f738d)" id="svg_70"/><g opacity="0.5" id="svg_71"><rect x="312.489990234375" y="128.69000244140625" width="92.5199966430664" height="76" fill="url(#ac84c3f4-4913-47be-bf79-f44b0f4db4c8)" id="svg_72"/></g><rect x="313.57000732421875" y="130.1300048828125" width="90.19000244140625" height="73.30000305175781" fill="url(#08e6e94c-7f78-4a4a-b5ca-eacc99124954)" id="svg_73"/><rect x="313.57000732421875" y="130.1300048828125" width="90.19000244140625" height="16.350000381469727" fill="url(#5d8bf870-f7e1-4226-8bb2-e6c031939852)" id="svg_74"/><g opacity="0.1" id="svg_75"><rect x="313.57000732421875" y="130.1300048828125" width="90.19000244140625" height="16.350000381469727" fill="url(#5d8bf870-f7e1-4226-8bb2-e6c031939852)" id="svg_76"/></g><rect x="320.760009765625" y="152.41000366210938" width="75.81999969482422" height="9.520000457763672" fill="url(#ca57a38f-5e0b-4f9a-ad35-d20a6a3fb589)" id="svg_77"/><rect x="320.760009765625" y="169.1199951171875" width="55.34000015258789" height="3.2300000190734863" fill="url(#1fd9aa29-bfa0-42ec-baa0-a47f4919731f)" id="svg_78"/><rect x="320.760009765625" y="174.69000244140625" width="35.93000030517578" height="3.2300000190734863" fill="url(#2b0d4ee5-bed4-41f8-93bf-55bbaa1359c2)" id="svg_79"/><rect x="320.760009765625" y="180.25999450683594" width="47.43000030517578" height="3.2300000190734863" fill="url(#ffea16a4-8b84-4b92-9000-f48bb1ea4454)" id="svg_80"/><rect x="320.760009765625" y="185.82000732421875" width="55.34000015258789" height="3.2300000190734863" fill="url(#bd2a8e8b-f3e8-4ae2-849a-acfa94ff2f68)" id="svg_81"/><rect x="320.760009765625" y="191.38999938964844" width="18.5" height="3.2300000190734863" fill="url(#f06efa35-a8e5-4b8b-afbe-7609fb33c535)" id="svg_82"/><g opacity="0.5" id="svg_83"><rect x="448.5199890136719" y="185.75999450683594" width="114.68000030517578" height="94.19000244140625" fill="url(#b384c48b-fa09-4d02-bdd3-cc00491ed01d)" id="svg_84"/></g><rect x="449.8599853515625" y="187.5399932861328" width="111.79000091552734" height="90.8499984741211" fill="url(#5e00f217-30a6-42ff-b3ae-1a90f6b4187c)" id="svg_85"/><rect x="449.8599853515625" y="187.5399932861328" width="111.79000091552734" height="20.260000228881836" fill="url(#dc2aebd1-2b83-4119-bcc5-a741f826754f)" id="svg_86"/><rect x="458.760009765625" y="215.14999389648438" width="93.97000122070312" height="11.800000190734863" fill="url(#93231171-c5fd-4b16-9e58-5bf8089a9216)" id="svg_87"/><rect x="458.760009765625" y="235.86000061035156" width="68.58999633789062" height="4.010000228881836" fill="url(#50b8a9d8-eeba-4f66-80ff-241f1361769d)" id="svg_88"/><rect x="458.760009765625" y="242.75999450683594" width="44.540000915527344" height="4.010000228881836" fill="url(#1c46a2fd-722a-4782-991f-2753aa584a85)" id="svg_89"/><rect x="458.760009765625" y="249.6699981689453" width="58.790000915527344" height="4.010000228881836" fill="url(#20746c70-8f38-4111-a8e7-6be16dcdc432)" id="svg_90"/><rect x="458.760009765625" y="256.57000732421875" width="68.58999633789062" height="4.010000228881836" fill="url(#ff2c3201-2e6a-4c49-9262-7d1610fa9938)" id="svg_91"/><rect x="458.760009765625" y="263.4700012207031" width="22.940000534057617" height="4.010000228881836" fill="url(#f77a8c52-f808-4319-bd14-9cea9a000094)" id="svg_92"/><rect x="463.6600036621094" y="219.16000366210938" width="26.719999313354492" height="3.559999942779541" fill="url(#fc3b52e5-7958-4225-afa3-e6f186f3a800)" id="svg_93"/><g opacity="0.1" id="svg_94"><polygon points="121.07 540.75 256.71 574.98 365.73 486.24 365.73 431.73 123.6 370.88 121.07 540.75" fill="url(#2b5a7ca0-2cf9-4df0-8cdd-e53d9708a5ec)" id="svg_95"/></g><g opacity="0.1" id="svg_96"><polygon points="610.4 540.75 474.75 574.98 365.73 486.24 365.73 431.73 607.86 370.88 610.4 540.75" fill="url(#90935925-bac4-44a4-bec6-4c83fa48424d)" id="svg_97"/></g><polygon points="124.23 366.44 0 469.13 242.13 529.98 366.37 431.1 124.23 366.44" fill="url(#f90ef38d-8fba-46a7-8e54-2d901dfd8f20)" id="svg_98"/><polygon points="608.5 366.44 734 469.13 493.14 529.98 366.37 431.1 608.5 366.44" fill="url(#7f322de3-7e3f-4ca5-a3a0-2f913675712e)" id="svg_99"/><g opacity="0.07" id="svg_100"><polygon points="608.5 366.44 734 469.13 493.14 529.98 366.37 431.1 608.5 366.44" fill="url(#7f322de3-7e3f-4ca5-a3a0-2f913675712e)" id="svg_101"/></g></g><polygon points="608.94 363.36 368.88 305.54 368.88 758.01 608.94 695.17 608.94 363.36" fill="#535461" id="svg_102"/><polygon points="608.94 363.36 368.88 305.54 368.88 758.01 608.94 695.17 608.94 363.36" opacity="0.1" id="svg_103"/><polygon points="128.83 363.36 368.88 305.54 368.88 758.01 128.83 696.42 128.83 363.36" fill="#535461" id="svg_104"/><polygon points="128.83 361.36 368.88 303.54 368.88 758.01 128.83 696.42 128.83 361.36" opacity="0.17" id="svg_105"/><polygon points="366.88 307.54 493.31 202.48 733.37 264.07 606.94 365.36 366.88 307.54" fill="#535461" id="svg_106"/><polygon points="7.66 267.32 130.83 365.36 370.88 307.54 248.97 204.48 7.66 267.32" fill="#535461" id="svg_107"/><polygon points="5.66 265.32 131.83 365.36 371.88 307.54 246.97 202.48 5.66 265.32" opacity="0.05" id="svg_108"/><g opacity="0.5" id="svg_109"><rect x="190.8300018310547" y="253.24000549316406" width="178.17999267578125" height="164.39999389648438" rx="4.5" ry="4.5" fill="url(#7e9b6443-5111-46ce-82ab-312f92c279a9)" id="svg_110"/></g><rect x="193.00999450683594" y="254.52000427246094" width="174.07000732421875" height="160.41000366210938" rx="4.5" ry="4.5" fill="#f5f5f5" id="svg_111"/><rect x="206.4199981689453" y="280.94000244140625" width="29.360000610351562" height="26.420000076293945" rx="4.5" ry="4.5" fill="#6c63ff" id="svg_112"/><rect x="244.58999633789062" y="280.94000244140625" width="116.69999694824219" height="2.940000057220459" rx="0.800000011920929" ry="0.800000011920929" fill="#e0e0e0" id="svg_113"/><rect x="244.58999633789062" y="289.739990234375" width="116.69999694824219" height="2.940000057220459" rx="0.800000011920929" ry="0.800000011920929" fill="#e0e0e0" id="svg_114"/><rect x="203.49000549316406" y="321.7099914550781" width="157.8000030517578" height="2.940000057220459" rx="0.800000011920929" ry="0.800000011920929" fill="#e0e0e0" id="svg_115"/><rect x="203.49000549316406" y="330.5199890136719" width="157.8000030517578" height="2.940000057220459" rx="0.800000011920929" ry="0.800000011920929" fill="#e0e0e0" id="svg_116"/><rect x="203.49000549316406" y="342.260009765625" width="157.8000030517578" height="2.940000057220459" rx="0.800000011920929" ry="0.800000011920929" fill="#e0e0e0" id="svg_117"/><rect x="203.49000549316406" y="351.07000732421875" width="91.01000213623047" height="2.940000057220459" rx="0.800000011920929" ry="0.800000011920929" fill="#e0e0e0" id="svg_118"/><rect x="203.49000549316406" y="362.7799987792969" width="157.8000030517578" height="2.940000057220459" rx="0.800000011920929" ry="0.800000011920929" fill="#e0e0e0" id="svg_119"/><rect x="203.49000549316406" y="371.5899963378906" width="157.8000030517578" height="2.940000057220459" rx="0.800000011920929" ry="0.800000011920929" fill="#e0e0e0" id="svg_120"/><rect x="203.49000549316406" y="383.3299865722656" width="157.8000030517578" height="2.940000057220459" rx="0.800000011920929" ry="0.800000011920929" fill="#e0e0e0" id="svg_121"/><rect x="203.49000549316406" y="392.1400146484375" width="91.01000213623047" height="2.940000057220459" rx="0.800000011920929" ry="0.800000011920929" fill="#e0e0e0" id="svg_122"/><g opacity="0.5" id="svg_123"><rect x="217.72000122070312" y="291.2300109863281" width="178.17999267578125" height="164.39999389648438" rx="4.5" ry="4.5" fill="url(#0bd401ed-ef45-4e9e-bf5f-b77781a1e2b2)" id="svg_124"/></g><rect x="219.89999389648438" y="292.510009765625" width="174.07000732421875" height="160.41000366210938" rx="4.5" ry="4.5" fill="#fff" id="svg_125"/><rect x="233.30999755859375" y="318.92999267578125" width="29.360000610351562" height="26.420000076293945" rx="4.5" ry="4.5" fill="#6c63ff" id="svg_126"/><rect x="271.4800109863281" y="318.92999267578125" width="116.69999694824219" height="2.940000057220459" rx="0.800000011920929" ry="0.800000011920929" fill="#e0e0e0" id="svg_127"/><rect x="271.4800109863281" y="327.7300109863281" width="116.69999694824219" height="2.940000057220459" rx="0.800000011920929" ry="0.800000011920929" fill="#e0e0e0" id="svg_128"/><rect x="230.3800048828125" y="359.70001220703125" width="157.8000030517578" height="2.940000057220459" rx="0.800000011920929" ry="0.800000011920929" fill="#e0e0e0" id="svg_129"/><rect x="230.3800048828125" y="368.510009765625" width="157.8000030517578" height="2.940000057220459" rx="0.800000011920929" ry="0.800000011920929" fill="#e0e0e0" id="svg_130"/><rect x="230.3800048828125" y="380.25" width="157.8000030517578" height="2.940000057220459" rx="0.800000011920929" ry="0.800000011920929" fill="#e0e0e0" id="svg_131"/><rect x="230.3800048828125" y="389.05999755859375" width="91.01000213623047" height="2.940000057220459" rx="0.800000011920929" ry="0.800000011920929" fill="#e0e0e0" id="svg_132"/><rect x="230.3800048828125" y="400.7699890136719" width="157.8000030517578" height="2.940000057220459" rx="0.800000011920929" ry="0.800000011920929" fill="#e0e0e0" id="svg_133"/><rect x="230.3800048828125" y="409.5799865722656" width="157.8000030517578" height="2.940000057220459" rx="0.800000011920929" ry="0.800000011920929" fill="#e0e0e0" id="svg_134"/><rect x="230.3800048828125" y="421.32000732421875" width="157.8000030517578" height="2.940000057220459" rx="0.800000011920929" ry="0.800000011920929" fill="#e0e0e0" id="svg_135"/><rect x="230.3800048828125" y="430.1300048828125" width="91.01000213623047" height="2.940000057220459" rx="0.800000011920929" ry="0.800000011920929" fill="#e0e0e0" id="svg_136"/><g opacity="0.5" id="svg_137"><rect x="321.3399963378906" y="312.510009765625" width="154.38999938964844" height="181.38999938964844" fill="url(#8c2d82fb-4f28-4e85-a5ca-7392731b2ba5)" id="svg_138"/></g><rect x="326.0899963378906" y="315.42999267578125" width="146.36000061035156" height="174.4600067138672" fill="#fff" id="svg_139"/><g opacity="0.5" id="svg_140"><path d="M407.24,343.17 v-4.39 H391.28999999999996 v4.39 H380.13 v21.53 H418.4 V343.17 zm-14,-2.79 h12 v2.79 h-12 z" fill="url(#5d661687-e38a-43c0-8ba0-d38908ccc19f)" id="svg_141"/></g><rect x="381.75" y="343.8999938964844" width="35.040000915527344" height="19.709999084472656" fill="#6c63ff" id="svg_142"/><polygon points="391.97 339.88 391.97 344.99 393.79 344.99 393.79 341.34 404.74 341.34 404.74 344.99 406.57 344.99 406.57 339.88 391.97 339.88" fill="#6c63ff" id="svg_143"/><rect x="347.989990234375" y="391.9700012207031" width="102.91999816894531" height="4.380000114440918" fill="#e0e0e0" id="svg_144"/><rect x="347.989990234375" y="420.79998779296875" width="102.91999816894531" height="4.380000114440918" fill="#e0e0e0" id="svg_145"/><rect x="347.989990234375" y="428.4700012207031" width="102.91999816894531" height="4.380000114440918" fill="#e0e0e0" id="svg_146"/><rect x="347.989990234375" y="413.1400146484375" width="43.43000030517578" height="4.380000114440918" fill="#e0e0e0" id="svg_147"/><rect x="418.42999267578125" y="413.1400146484375" width="32.47999954223633" height="4.380000114440918" fill="#3ad29f" opacity="0.6" id="svg_148"/><rect x="384.1199951171875" y="446.3500061035156" width="32.47999954223633" height="4.380000114440918" fill="#6c63ff" id="svg_149"/><polygon points="128.83 363.36 128.83 696.42 368.88 758.01 372.12 427.46 128.83 363.36" fill="#535461" id="svg_150"/><polygon points="608.94 695.17 368.88 758.01 368.88 427.46 608.94 363.36 608.94 695.17" fill="#535461" id="svg_151"/><polygon points="608.94 695.17 368.88 758.01 368.88 427.46 608.94 363.36 608.94 695.17" opacity="0.07" id="svg_152"/><polygon points="513.42 584.57 513.42 693.91 608.94 667.52 608.94 558.17 513.42 584.57" opacity="0.07" id="svg_153"/><rect x="483.30999755859375" y="335.5799865722656" width="70.80000305175781" height="68.0199966430664" fill="url(#e62c516b-7ef4-49fd-a0a5-f3f48af03dcb)" id="svg_154"/><rect x="484.4200134277344" y="337.239990234375" width="68.58000183105469" height="64.97000122070312" fill="#f5f5f5" id="svg_155"/><g opacity="0.5" id="svg_156"><path d="M524.78,348.63 V345.25 H512.65 v3.34 h-8.49 v16.38 h29.11 V348.63 zm-10.61,-2.12 h9.1 v2.12 h-9.1 z" fill="url(#6e0711fe-dd5e-4be2-836c-3534ecd56ee9)" id="svg_157"/></g><rect x="505.3800048828125" y="349.17999267578125" width="26.649999618530273" height="14.989999771118164" fill="#6c63ff" opacity="0.6" id="svg_158"/><polygon points="513.16 346.13 513.16 350.02 514.55 350.02 514.55 347.24 522.88 347.24 522.88 350.02 524.26 350.02 524.26 346.13 513.16 346.13" fill="#6c63ff" opacity="0.6" id="svg_159"/><g opacity="0.6" id="svg_160"><rect x="506.9100036621094" y="375.8399963378906" width="24.709999084472656" height="3.3299999237060547" fill="#6c63ff" id="svg_161"/></g><rect x="497.6099853515625" y="381.95001220703125" width="42.20000076293945" height="3.3299999237060547" fill="#bdbdbd" id="svg_162"/><rect x="415.44000244140625" width="70.80000305175781" height="68.0199966430664" fill="url(#c910eb88-40c3-4f47-be10-2fca2f669ad6)" id="svg_163"/><rect x="416.54998779296875" y="1.6699999570846558" width="68.58000183105469" height="64.97000122070312" fill="#f5f5f5" id="svg_164"/><g opacity="0.5" id="svg_165"><path d="M456.90999999999997,13.049999999999997 V9.719999999999999 H444.78 V13.049999999999997 h-8.49 V29.430000000000007 H465.4 V13.049999999999997 zm-10.61,-2.12 h9.1 V13.049999999999997 h-9.1 z" fill="url(#81ab2f40-7513-4f79-907c-194f7c944fd5)" id="svg_166"/></g><rect x="437.510009765625" y="13.600000381469727" width="26.649999618530273" height="14.989999771118164" fill="#6c63ff" opacity="0.6" id="svg_167"/><polygon points="445.29 10.55 445.29 14.44 446.68 14.44 446.68 11.66 455.01 11.66 455.01 14.44 456.39 14.44 456.39 10.55 445.29 10.55" fill="#6c63ff" opacity="0.6" id="svg_168"/><g opacity="0.6" id="svg_169"><rect x="439.0400085449219" y="40.2599983215332" width="24.709999084472656" height="3.3299999237060547" fill="#6c63ff" id="svg_170"/></g><rect x="429.739990234375" y="46.369998931884766" width="42.20000076293945" height="3.3299999237060547" fill="#bdbdbd" id="svg_171"/><g opacity="0.5" id="svg_172"><rect x="315.4700012207031" y="127.63999938964844" width="91.7300033569336" height="75.3499984741211" fill="url(#ced5db71-211d-4559-8944-028d2e60ece5)" id="svg_173"/></g><rect x="316.5400085449219" y="129.07000732421875" width="89.41999816894531" height="72.66999816894531" fill="#f2f2f2" id="svg_174"/><rect x="316.5400085449219" y="129.07000732421875" width="89.41999816894531" height="16.209999084472656" fill="#6c63ff" id="svg_175"/><rect x="316.5400085449219" y="129.07000732421875" width="89.41999816894531" height="16.209999084472656" opacity="0.1" id="svg_176"/><rect x="323.6700134277344" y="151.16000366210938" width="75.16999816894531" height="9.4399995803833" fill="#e0e0e0" id="svg_177"/><rect x="323.6700134277344" y="167.72000122070312" width="54.86000061035156" height="3.2100000381469727" fill="#e0e0e0" id="svg_178"/><rect x="323.6700134277344" y="173.24000549316406" width="35.619998931884766" height="3.2100000381469727" fill="#e0e0e0" id="svg_179"/><rect x="323.6700134277344" y="178.75999450683594" width="47.02000045776367" height="3.2100000381469727" fill="#e0e0e0" id="svg_180"/><rect x="323.6700134277344" y="184.2899932861328" width="54.86000061035156" height="3.2100000381469727" fill="#e0e0e0" id="svg_181"/><rect x="323.6700134277344" y="189.80999755859375" width="18.350000381469727" height="3.2100000381469727" fill="#e0e0e0" id="svg_182"/><g opacity="0.5" id="svg_183"><rect x="450.3299865722656" y="184.22000122070312" width="113.69999694824219" height="93.38999938964844" fill="url(#4adf524d-df88-48e8-970a-1ad7028c73c0)" id="svg_184"/></g><rect x="451.6600036621094" y="185.97999572753906" width="110.83000183105469" height="90.08000183105469" fill="#fff" id="svg_185"/><rect x="451.6600036621094" y="185.97999572753906" width="110.83000183105469" height="20.09000015258789" fill="#6c63ff" id="svg_186"/><rect x="460.489990234375" y="213.36000061035156" width="93.16999816894531" height="11.699999809265137" fill="#f5f5f5" id="svg_187"/><rect x="460.489990234375" y="233.88999938964844" width="68" height="3.9700000286102295" fill="#e0e0e0" id="svg_188"/><rect x="460.489990234375" y="240.74000549316406" width="44.15999984741211" height="3.9700000286102295" fill="#e0e0e0" id="svg_189"/><rect x="460.489990234375" y="247.5800018310547" width="58.279998779296875" height="3.9700000286102295" fill="#e0e0e0" id="svg_190"/><rect x="460.489990234375" y="254.42999267578125" width="68" height="3.9700000286102295" fill="#e0e0e0" id="svg_191"/><rect x="460.489990234375" y="261.2699890136719" width="22.739999771118164" height="3.9700000286102295" fill="#e0e0e0" id="svg_192"/><rect x="465.3500061035156" y="217.3300018310547" width="26.489999771118164" height="3.5299999713897705" fill="#69f0ae" id="svg_193"/><polygon points="125.69 536.18 260.17 570.11 368.26 482.13 368.26 428.09 128.2 367.76 125.69 536.18" opacity="0.1" id="svg_194"/><polygon points="610.83 536.18 476.35 570.11 368.26 482.13 368.26 428.09 608.32 367.76 610.83 536.18" opacity="0.1" id="svg_195"/><polygon points="128.83 363.36 5.66 465.16 245.71 525.49 368.88 427.46 128.83 363.36" fill="#535461" id="svg_196"/><polygon points="608.94 363.36 733.37 465.16 494.57 525.49 368.88 427.46 608.94 363.36" fill="#535461" id="svg_197"/><polygon points="608.94 363.36 733.37 465.16 494.57 525.49 368.88 427.46 608.94 363.36" opacity="0.07" id="svg_198"/></g></svg>